{"scene":0,"asset":{"generator":"ImageToStl.com","version":"2.0"},"scenes":[{"name":"Scene","nodes":[0]}],"nodes":[{"name":"Node0","children":[1,2,3,4,5,6,7,8]},{"name":"Node1","mesh":0},{"name":"Node2","mesh":1},{"name":"Node3","mesh":2},{"name":"Node4","mesh":3},{"name":"Node5","mesh":4},{"name":"Node6","mesh":5},{"name":"Node7","mesh":6},{"name":"Node8","mesh":7}],"materials":[{"name":"x1","pbrMetallicRoughness":{"baseColorFactor":[0.85,0.85,0.85,1.0],"metallicFactor":0.05,"roughnessFactor":0.5},"doubleSided":true}],"meshes":[{"name":"Mesh0","primitives":[{"indices":1,"material":0,"attributes":{"POSITION":0}}]},{"name":"Mesh0","primitives":[{"indices":3,"material":0,"attributes":{"POSITION":2}}]},{"name":"Mesh0","primitives":[{"indices":5,"material":0,"attributes":{"POSITION":4}}]},{"name":"Mesh0","primitives":[{"indices":9,"material":0,"attributes":{"POSITION":6,"NORMAL":7,"TEXCOORD_0":8}}]},{"name":"Mesh0","primitives":[{"indices":13,"material":0,"attributes":{"POSITION":10,"NORMAL":11,"TEXCOORD_0":12}}]},{"name":"Mesh0","primitives":[{"indices":17,"material":0,"attributes":{"POSITION":14,"NORMAL":15,"TEXCOORD_0":16}}]},{"name":"Mesh0","primitives":[{"indices":21,"material":0,"attributes":{"POSITION":18,"NORMAL":19,"TEXCOORD_0":20}}]},{"name":"Mesh0","primitives":[{"indices":25,"material":0,"attributes":{"POSITION":22,"NORMAL":23,"TEXCOORD_0":24}}]}],"accessors":[{"bufferView":0,"componentType":5126,"count":20098,"type":"VEC3","min":[6.673585,2.377272,4.105024],"max":[7.605685,4.885872,5.434324]},{"bufferView":1,"componentType":5123,"count":120576,"type":"SCALAR"},{"bufferView":2,"componentType":5126,"count":20098,"type":"VEC3","min":[10.673585,5.377272,4.105024],"max":[11.605685,7.885872,5.434324]},{"bufferView":3,"componentType":5123,"count":120576,"type":"SCALAR"},{"bufferView":4,"componentType":5126,"count":20098,"type":"VEC3","min":[4.030674,6.208053,4.105024],"max":[6.434297,7.651619,5.434324]},{"bufferView":5,"componentType":5123,"count":120576,"type":"SCALAR"},{"bufferView":6,"componentType":5126,"count":32,"type":"VEC3","min":[0.5,0.5,0.5],"max":[19.5,9.5,1.5]},{"bufferView":7,"componentType":5126,"count":32,"type":"VEC3"},{"bufferView":8,"componentType":5126,"count":32,"type":"VEC2"},{"bufferView":9,"componentType":5123,"count":180,"type":"SCALAR"},{"bufferView":10,"componentType":5126,"count":54,"type":"VEC3","min":[0.0,0.5,0.0],"max":[19.5,10.0,4.0]},{"bufferView":11,"componentType":5126,"count":54,"type":"VEC3"},{"bufferView":12,"componentType":5126,"count":54,"type":"VEC2"},{"bufferView":13,"componentType":5123,"count":324,"type":"SCALAR"},{"bufferView":14,"componentType":5126,"count":1712,"type":"VEC3","min":[0.0,0.5,4.0],"max":[13.5,10.0,4.1]},{"bufferView":15,"componentType":5126,"count":1712,"type":"VEC3"},{"bufferView":16,"componentType":5126,"count":1712,"type":"VEC2"},{"bufferView":17,"componentType":5123,"count":12780,"type":"SCALAR"},{"bufferView":18,"componentType":5126,"count":44,"type":"VEC3","min":[0.0,0.5,4.1],"max":[13.5,10.0,8.1]},{"bufferView":19,"componentType":5126,"count":44,"type":"VEC3"},{"bufferView":20,"componentType":5126,"count":44,"type":"VEC2"},{"bufferView":21,"componentType":5123,"count":252,"type":"SCALAR"},{"bufferView":22,"componentType":5126,"count":42,"type":"VEC3","min":[0.0,0.5,8.1],"max":[7.5,10.0,10.0]},{"bufferView":23,"componentType":5126,"count":42,"type":"VEC3"},{"bufferView":24,"componentType":5126,"count":42,"type":"VEC2"},{"bufferView":25,"componentType":5123,"count":216,"type":"SCALAR"}],"bufferViews":[{"target":34962,"buffer":0,"byteLength":241176,"byteOffset":0},{"target":34963,"buffer":0,"byteLength":241152,"byteOffset":241176},{"target":34962,"buffer":0,"byteLength":241176,"byteOffset":482328},{"target":34963,"buffer":0,"byteLength":241152,"byteOffset":723504},{"target":34962,"buffer":0,"byteLength":241176,"byteOffset":964656},{"target":34963,"buffer":0,"byteLength":241152,"byteOffset":1205832},{"target":34962,"buffer":0,"byteLength":384,"byteOffset":1446984},{"target":34962,"buffer":0,"byteLength":384,"byteOffset":1447368},{"target":34962,"buffer":0,"byteLength":256,"byteOffset":1447752},{"target":34963,"buffer":0,"byteLength":360,"byteOffset":1448008},{"target":34962,"buffer":0,"byteLength":648,"byteOffset":1448368},{"target":34962,"buffer":0,"byteLength":648,"byteOffset":1449016},{"target":34962,"buffer":0,"byteLength":432,"byteOffset":1449664},{"target":34963,"buffer":0,"byteLength":648,"byteOffset":1450096},{"target":34962,"buffer":0,"byteLength":20544,"byteOffset":1450744},{"target":34962,"buffer":0,"byteLength":20544,"byteOffset":1471288},{"target":34962,"buffer":0,"byteLength":13696,"byteOffset":1491832},{"target":34963,"buffer":0,"byteLength":25560,"byteOffset":1505528},{"target":34962,"buffer":0,"byteLength":528,"byteOffset":1531088},{"target":34962,"buffer":0,"byteLength":528,"byteOffset":1531616},{"target":34962,"buffer":0,"byteLength":352,"byteOffset":1532144},{"target":34963,"buffer":0,"byteLength":504,"byteOffset":1532496},{"target":34962,"buffer":0,"byteLength":504,"byteOffset":1533000},{"target":34962,"buffer":0,"byteLength":504,"byteOffset":1533504},{"target":34962,"buffer":0,"byteLength":336,"byteOffset":1534008},{"target":34963,"buffer":0,"byteLength":432,"byteOffset":1534344}],"buffers":[{"byteLength":1534776,"uri":"data:application/octet-stream;base64,"}]}