{"accessors" : [{"bufferView" : 0, "byteOffset" : 0, "componentType" : 5123, "count" : 59982, "type" : "SCALAR", "max" : [59663], "min" : [0]}, {"bufferView" : 1, "byteOffset" : 0, "componentType" : 5126, "count" : 59664, "type" : "VEC3", "max" : [2.077958583831787, 1.379022479057312, 0.5807436108589172], "min" : [8.940696716308594E-08, 1.7881393432617188E-07, 1.1622905731201172E-05], "name" : "POSITION"}, {"bufferView" : 1, "byteOffset" : 12, "componentType" : 5126, "count" : 59664, "type" : "VEC3", "max" : [0.9996913075447083, 0.9997251033782959, 1.000000238418579], "min" : [-0.9999755024909973, -0.9998804926872253, -0.9999651908874512], "name" : "NORMAL"}], "asset" : {"generator" : "Aspose.3D 25.3.0", "version" : "2.0"}, "buffers" : [{"uri" : "data:application/octet-stream;base64,", "byteLength" : 1551908}], "bufferViews" : [{"buffer" : 0, "byteOffset" : 0, "byteLength" : 119964, "target" : 34963}, {"buffer" : 0, "byteOffset" : 119968, "byteLength" : 1431936, "byteStride" : 24, "target" : 34962}], "materials" : [{"pbrMetallicRoughness" : {"baseColorFactor" : [0.8823529, 0.8823529, 0.8823529, 1], "metallicFactor" : 0, "roughnessFactor" : 0.66}, "emissiveFactor" : [0, 0, 0], "alphaMode" : "OPAQUE", "doubleSided" : false}], "meshes" : [{"primitives" : [{"attributes" : {"POSITION" : 1, "NORMAL" : 2}, "indices" : 0, "material" : 0, "mode" : 4}]}], "nodes" : [{"mesh" : 0, "name" : "Solid1"}, {"children" : [0], "matrix" : [1, 0, 0, 0, 0, 2.220446049250313E-16, -1, 0, 0, 1, 2.220446049250313E-16, 0, 0, 0, 0, 1], "name" : "Node #0"}], "scene" : 0, "scenes" : [{"nodes" : [1]}]}