{"accessors" : [{"bufferView" : 0, "byteOffset" : 0, "componentType" : 5123, "count" : 20700, "type" : "SCALAR", "max" : [3645], "min" : [0]}, {"bufferView" : 1, "byteOffset" : 0, "componentType" : 5126, "count" : 3646, "type" : "VEC3", "max" : [0.018180442973971367, 0.019990000873804092, 0.018176456913352013], "min" : [-0.0181644968688488, -0.019990000873804092, -0.018176456913352013], "name" : "POSITION"}, {"bufferView" : 1, "byteOffset" : 12, "componentType" : 5126, "count" : 3646, "type" : "VEC3", "max" : [0.9996671080589294, 1.0000044107437134, 0.9994478821754456], "min" : [-0.9987901449203491, -1.0000044107437134, -0.9994478821754456], "name" : "NORMAL"}, {"bufferView" : 0, "byteOffset" : 41400, "componentType" : 5123, "count" : 17328, "type" : "SCALAR", "max" : [3077], "min" : [0]}, {"bufferView" : 2, "byteOffset" : 0, "componentType" : 5126, "count" : 3078, "type" : "VEC3", "max" : [0.007499999832361937, 0.007499999832361937, 0.007499999832361937], "min" : [-0.007499999832361937, -0.007499999832361937, -0.007499999832361937], "name" : "POSITION"}, {"bufferView" : 2, "byteOffset" : 12, "componentType" : 5126, "count" : 3078, "type" : "VEC3", "max" : [1.0000044107437134, 1.0000044107437134, 1.0000044107437134], "min" : [-1.0000044107437134, -1.0000044107437134, -1.0000044107437134], "name" : "NORMAL"}, {"bufferView" : 0, "byteOffset" : 76056, "componentType" : 5123, "count" : 17328, "type" : "SCALAR", "max" : [3077], "min" : [0]}, {"bufferView" : 3, "byteOffset" : 0, "componentType" : 5126, "count" : 3078, "type" : "VEC3", "max" : [0.00749799981713295, 0.00749799981713295, 0.00749799981713295], "min" : [-0.00749799981713295, -0.00749799981713295, -0.00749799981713295], "name" : "POSITION"}, {"bufferView" : 3, "byteOffset" : 12, "componentType" : 5126, "count" : 3078, "type" : "VEC3", "max" : [1.0000044107437134, 1.0000044107437134, 1.0000044107437134], "min" : [-1.0000044107437134, -1.0000044107437134, -1.0000044107437134], "name" : "NORMAL"}, {"bufferView" : 0, "byteOffset" : 110712, "componentType" : 5123, "count" : 18480, "type" : "SCALAR", "max" : [3263], "min" : [0]}, {"bufferView" : 4, "byteOffset" : 0, "componentType" : 5126, "count" : 3264, "type" : "VEC3", "max" : [0.01818842627108097, 0.019999999552965164, 0.018170110881328583], "min" : [-0.01818842627108097, -0.019999999552965164, -0.018170110881328583], "name" : "POSITION"}, {"bufferView" : 4, "byteOffset" : 12, "componentType" : 5126, "count" : 3264, "type" : "VEC3", "max" : [0.999535083770752, 1.0000044107437134, 0.9985285997390747], "min" : [-0.999535083770752, -1.0000044107437134, -0.9985285997390747], "name" : "NORMAL"}], "asset" : {"generator" : "Aspose.3D 25.3.0", "version" : "2.0"}, "buffers" : [{"uri" : "data:application/octet-stream;base64,", "byteLength" : 461276}], "bufferViews" : [{"buffer" : 0, "byteOffset" : 0, "byteLength" : 147672, "target" : 34963}, {"buffer" : 0, "byteOffset" : 147676, "byteLength" : 87504, "byteStride" : 24, "target" : 34962}, {"buffer" : 0, "byteOffset" : 235184, "byteLength" : 73872, "byteStride" : 24, "target" : 34962}, {"buffer" : 0, "byteOffset" : 309060, "byteLength" : 73872, "byteStride" : 24, "target" : 34962}, {"buffer" : 0, "byteOffset" : 382936, "byteLength" : 78336, "byteStride" : 24, "target" : 34962}], "materials" : [{"pbrMetallicRoughness" : {"baseColorFactor" : [0.5607843, 0.5843138, 0.6862745, 1], "metallicFactor" : 0, "roughnessFactor" : 0.66}, "emissiveFactor" : [0, 0, 0], "alphaMode" : "OPAQUE", "doubleSided" : false}, {"pbrMetallicRoughness" : {"baseColorFactor" : [0.5607843, 0.5843138, 0.6862745, 1], "metallicFactor" : 0, "roughnessFactor" : 0.66}, "emissiveFactor" : [0, 0, 0], "alphaMode" : "OPAQUE", "doubleSided" : false}, {"pbrMetallicRoughness" : {"baseColorFactor" : [0.8823529, 0.8823529, 0.8823529, 1], "metallicFactor" : 0, "roughnessFactor" : 0.66}, "emissiveFactor" : [0, 0, 0], "alphaMode" : "OPAQUE", "doubleSided" : false}, {"pbrMetallicRoughness" : {"baseColorFactor" : [0.6862745, 0.6196079, 0.5607843, 1], "metallicFactor" : 0, "roughnessFactor" : 0.66}, "emissiveFactor" : [0, 0, 0], "alphaMode" : "OPAQUE", "doubleSided" : false}], "meshes" : [{"primitives" : [{"attributes" : {"POSITION" : 1, "NORMAL" : 2}, "indices" : 0, "material" : 0, "mode" : 4}]}, {"primitives" : [{"attributes" : {"POSITION" : 4, "NORMAL" : 5}, "indices" : 3, "material" : 1, "mode" : 4}]}, {"primitives" : [{"attributes" : {"POSITION" : 7, "NORMAL" : 8}, "indices" : 6, "material" : 2, "mode" : 4}]}, {"primitives" : [{"attributes" : {"POSITION" : 10, "NORMAL" : 11}, "indices" : 9, "material" : 3, "mode" : 4}]}], "nodes" : [{"mesh" : 0, "name" : "Solid1"}, {"mesh" : 1, "name" : "Solid2"}, {"mesh" : 2, "name" : "Solid3"}, {"mesh" : 3, "name" : "Solid4"}, {"children" : [0, 1, 2, 3], "matrix" : [1, 0, 0, 0, 0, 2.220446049250313E-16, -1, 0, 0, 1, 2.220446049250313E-16, 0, 0, 0, 0, 1], "name" : "Node #0"}], "scene" : 0, "scenes" : [{"nodes" : [4]}]}