{"accessors" : [{"bufferView" : 0, "byteOffset" : 0, "componentType" : 5123, "count" : 3321, "type" : "SCALAR", "max" : [3320], "min" : [0]}, {"bufferView" : 1, "byteOffset" : 0, "componentType" : 5126, "count" : 3321, "type" : "VEC3", "max" : [1.3618263006210327, 1.3485532999038696, 0.5428122878074646], "min" : [-1.111343502998352, -1.0717917680740356, -0.41359052062034607], "name" : "POSITION"}, {"bufferView" : 1, "byteOffset" : 12, "componentType" : 5126, "count" : 3321, "type" : "VEC3", "max" : [0.9985383749008179, 0.9999526143074036, 0.9999357461929321], "min" : [-0.9999651312828064, -0.9998279213905334, -0.999403178691864], "name" : "NORMAL"}], "asset" : {"generator" : "Aspose.3D 25.3.0", "version" : "2.0"}, "buffers" : [{"uri" : "data:application/octet-stream;base64,", "byteLength" : 86356}], "bufferViews" : [{"buffer" : 0, "byteOffset" : 0, "byteLength" : 6644, "target" : 34963}, {"buffer" : 0, "byteOffset" : 6648, "byteLength" : 79704, "byteStride" : 24, "target" : 34962}], "materials" : [{"pbrMetallicRoughness" : {"baseColorFactor" : [0.5607843, 0.5607843, 0.6862745, 1], "metallicFactor" : 0, "roughnessFactor" : 0.66}, "emissiveFactor" : [0, 0, 0], "alphaMode" : "OPAQUE", "doubleSided" : true}], "meshes" : [{"primitives" : [{"attributes" : {"POSITION" : 1, "NORMAL" : 2}, "indices" : 0, "material" : 0, "mode" : 4}]}], "nodes" : [{"mesh" : 0, "name" : "Facets"}, {"children" : [0], "matrix" : [1, 0, 0, 0, 0, 2.220446049250313E-16, -1, 0, 0, 1, 2.220446049250313E-16, 0, 0, 0, 0, 1], "name" : "Node #0"}], "scene" : 0, "scenes" : [{"nodes" : [1]}]}