{"accessors" : [{"bufferView" : 0, "byteOffset" : 0, "componentType" : 5123, "count" : 23238, "type" : "SCALAR", "max" : [4459], "min" : [0]}, {"bufferView" : 1, "byteOffset" : 0, "componentType" : 5126, "count" : 4460, "type" : "VEC3", "max" : [0.11170457303524017, 0.09936269372701645, 0.49159348011016846], "min" : [-0.11170457303524017, -0.09685123711824417, 0.263265460729599], "name" : "POSITION"}, {"bufferView" : 1, "byteOffset" : 12, "componentType" : 5126, "count" : 4460, "type" : "VEC3", "max" : [0.9996092915534973, 0.9998022317886353, 0.9986212253570557], "min" : [-0.9996092915534973, -0.9997701048851013, -1.0000044107437134], "name" : "NORMAL"}, {"bufferView" : 0, "byteOffset" : 46476, "componentType" : 5123, "count" : 23394, "type" : "SCALAR", "max" : [4420], "min" : [0]}, {"bufferView" : 2, "byteOffset" : 0, "componentType" : 5126, "count" : 4421, "type" : "VEC3", "max" : [0.03999999910593033, 0.041625525802373886, 0.5249131917953491], "min" : [-0.03999999910593033, -0.038650721311569214, 0.45668119192123413], "name" : "POSITION"}, {"bufferView" : 2, "byteOffset" : 12, "componentType" : 5126, "count" : 4421, "type" : "VEC3", "max" : [1.0000044107437134, 1.0000044107437134, 0.9999254941940308], "min" : [-1.0000044107437134, -0.9999859929084778, -0.9999839663505554], "name" : "NORMAL"}, {"bufferView" : 0, "byteOffset" : 93264, "componentType" : 5123, "count" : 2490, "type" : "SCALAR", "max" : [837], "min" : [0]}, {"bufferView" : 3, "byteOffset" : 0, "componentType" : 5126, "count" : 838, "type" : "VEC3", "max" : [0.020937955006957054, 0.025769684463739395, 0.5233362913131714], "min" : [-0.020938044413924217, -0.011219995096325874, 0.5070000290870667], "name" : "POSITION"}, {"bufferView" : 3, "byteOffset" : 12, "componentType" : 5126, "count" : 838, "type" : "VEC3", "max" : [1.0000044107437134, 1.0000044107437134, 1.0000044107437134], "min" : [-1.0000044107437134, -1.0000044107437134, 0], "name" : "NORMAL"}, {"bufferView" : 0, "byteOffset" : 98244, "componentType" : 5123, "count" : 30720, "type" : "SCALAR", "max" : [5898], "min" : [0]}, {"bufferView" : 4, "byteOffset" : 0, "componentType" : 5126, "count" : 5899, "type" : "VEC3", "max" : [0.13937605917453766, 0.14402484893798828, 0.4206216335296631], "min" : [0.05313817784190178, 0.05934539809823036, 0.3234279155731201], "name" : "POSITION"}, {"bufferView" : 4, "byteOffset" : 12, "componentType" : 5126, "count" : 5899, "type" : "VEC3", "max" : [0.9999985694885254, 0.9958142638206482, 0.99994957447052], "min" : [-0.999977707862854, -0.9999452829360962, -0.9990783929824829], "name" : "NORMAL"}, {"bufferView" : 0, "byteOffset" : 159684, "componentType" : 5123, "count" : 30714, "type" : "SCALAR", "max" : [5896], "min" : [0]}, {"bufferView" : 5, "byteOffset" : 0, "componentType" : 5126, "count" : 5897, "type" : "VEC3", "max" : [-0.05313817784190178, 0.14402484893798828, 0.4206216335296631], "min" : [-0.13937605917453766, 0.05934539809823036, 0.3234279155731201], "name" : "POSITION"}, {"bufferView" : 5, "byteOffset" : 12, "componentType" : 5126, "count" : 5897, "type" : "VEC3", "max" : [0.999977707862854, 0.9958142638206482, 0.99994957447052], "min" : [-0.9999985694885254, -0.9999452829360962, -0.9990783929824829], "name" : "NORMAL"}, {"bufferView" : 0, "byteOffset" : 221112, "componentType" : 5123, "count" : 29472, "type" : "SCALAR", "max" : [7012], "min" : [0]}, {"bufferView" : 6, "byteOffset" : 0, "componentType" : 5126, "count" : 7013, "type" : "VEC3", "max" : [0.1224956065416336, 0.10620526224374771, 0.3082582652568817], "min" : [-0.1224956065416336, -0.13779880106449127, -0.1978061944246292], "name" : "POSITION"}, {"bufferView" : 6, "byteOffset" : 12, "componentType" : 5126, "count" : 7013, "type" : "VEC3", "max" : [0.9999468326568604, 0.9999555349349976, 0.9999887347221375], "min" : [-0.9999468326568604, -0.9998829960823059, -0.999939501285553], "name" : "NORMAL"}, {"bufferView" : 0, "byteOffset" : 280056, "componentType" : 5123, "count" : 26676, "type" : "SCALAR", "max" : [6494], "min" : [0]}, {"bufferView" : 7, "byteOffset" : 0, "componentType" : 5126, "count" : 6495, "type" : "VEC3", "max" : [0.158100426197052, 0.0004327174392528832, 0.29424673318862915], "min" : [0.06709688156843185, -0.24775178730487823, 0.13620388507843018], "name" : "POSITION"}, {"bufferView" : 7, "byteOffset" : 12, "componentType" : 5126, "count" : 6495, "type" : "VEC3", "max" : [0.9998815059661865, 0.9995627403259277, 0.9995517134666443], "min" : [-0.9999794363975525, -0.9997045993804932, -0.9993763566017151], "name" : "NORMAL"}, {"bufferView" : 0, "byteOffset" : 333408, "componentType" : 5123, "count" : 26676, "type" : "SCALAR", "max" : [6494], "min" : [0]}, {"bufferView" : 8, "byteOffset" : 0, "componentType" : 5126, "count" : 6495, "type" : "VEC3", "max" : [-0.06709688156843185, 0.0004327174392528832, 0.29424673318862915], "min" : [-0.158100426197052, -0.24775178730487823, 0.13620388507843018], "name" : "POSITION"}, {"bufferView" : 8, "byteOffset" : 12, "componentType" : 5126, "count" : 6495, "type" : "VEC3", "max" : [0.9999794363975525, 0.9995627403259277, 0.9995517134666443], "min" : [-0.9998815059661865, -0.9997045993804932, -0.9993763566017151], "name" : "NORMAL"}, {"bufferView" : 0, "byteOffset" : 386760, "componentType" : 5123, "count" : 31146, "type" : "SCALAR", "max" : [7585], "min" : [0]}, {"bufferView" : 9, "byteOffset" : 0, "componentType" : 5126, "count" : 7586, "type" : "VEC3", "max" : [0.13596415519714355, 0.06861191242933273, -0.039209432899951935], "min" : [0.014590336009860039, -0.2583610713481903, -0.2203863561153412], "name" : "POSITION"}, {"bufferView" : 9, "byteOffset" : 12, "componentType" : 5126, "count" : 7586, "type" : "VEC3", "max" : [1.0000044107437134, 0.9996639490127563, 1.0000016689300537], "min" : [-1.0000044107437134, -0.9993009567260742, -0.9998412132263184], "name" : "NORMAL"}, {"bufferView" : 0, "byteOffset" : 449052, "componentType" : 5123, "count" : 31146, "type" : "SCALAR", "max" : [7585], "min" : [0]}, {"bufferView" : 10, "byteOffset" : 0, "componentType" : 5126, "count" : 7586, "type" : "VEC3", "max" : [-0.014590336009860039, 0.06861191242933273, -0.039209432899951935], "min" : [-0.13596415519714355, -0.2583610713481903, -0.2203863561153412], "name" : "POSITION"}, {"bufferView" : 10, "byteOffset" : 12, "componentType" : 5126, "count" : 7586, "type" : "VEC3", "max" : [1.0000044107437134, 0.9996639490127563, 1.0000016689300537], "min" : [-1.0000044107437134, -0.9993009567260742, -0.9998412132263184], "name" : "NORMAL"}, {"bufferView" : 0, "byteOffset" : 511344, "componentType" : 5123, "count" : 25086, "type" : "SCALAR", "max" : [4959], "min" : [0]}, {"bufferView" : 11, "byteOffset" : 0, "componentType" : 5126, "count" : 4960, "type" : "VEC3", "max" : [0.053924668580293655, 0.11359556764364243, -0.17473582923412323], "min" : [-0.05034884437918663, 0.01405805628746748, -0.2888738811016083], "name" : "POSITION"}, {"bufferView" : 11, "byteOffset" : 12, "componentType" : 5126, "count" : 4960, "type" : "VEC3", "max" : [0.9991456270217896, 0.9999454021453857, 0.9989654421806335], "min" : [-0.999941349029541, -0.9999482035636902, -0.9999081492424011], "name" : "NORMAL"}], "asset" : {"generator" : "Aspose.3D 25.3.0", "version" : "2.0"}, "buffers" : [{"uri" : "data:application/octet-stream;base64,", "byteLength" : 2041164}], "bufferViews" : [{"buffer" : 0, "byteOffset" : 0, "byteLength" : 561516, "target" : 34963}, {"buffer" : 0, "byteOffset" : 561520, "byteLength" : 107040, "byteStride" : 24, "target" : 34962}, {"buffer" : 0, "byteOffset" : 668564, "byteLength" : 106104, "byteStride" : 24, "target" : 34962}, {"buffer" : 0, "byteOffset" : 774672, "byteLength" : 20112, "byteStride" : 24, "target" : 34962}, {"buffer" : 0, "byteOffset" : 794788, "byteLength" : 141576, "byteStride" : 24, "target" : 34962}, {"buffer" : 0, "byteOffset" : 936368, "byteLength" : 141528, "byteStride" : 24, "target" : 34962}, {"buffer" : 0, "byteOffset" : 1077900, "byteLength" : 168312, "byteStride" : 24, "target" : 34962}, {"buffer" : 0, "byteOffset" : 1246216, "byteLength" : 155880, "byteStride" : 24, "target" : 34962}, {"buffer" : 0, "byteOffset" : 1402100, "byteLength" : 155880, "byteStride" : 24, "target" : 34962}, {"buffer" : 0, "byteOffset" : 1557984, "byteLength" : 182064, "byteStride" : 24, "target" : 34962}, {"buffer" : 0, "byteOffset" : 1740052, "byteLength" : 182064, "byteStride" : 24, "target" : 34962}, {"buffer" : 0, "byteOffset" : 1922120, "byteLength" : 119040, "byteStride" : 24, "target" : 34962}], "materials" : [{"pbrMetallicRoughness" : {"baseColorFactor" : [0.6862745, 0.5607843, 0.6235294, 1], "metallicFactor" : 0, "roughnessFactor" : 0.66}, "emissiveFactor" : [0, 0, 0], "alphaMode" : "OPAQUE", "doubleSided" : false}, {"pbrMetallicRoughness" : {"baseColorFactor" : [0.6862745, 0.5607843, 0.6235294, 1], "metallicFactor" : 0, "roughnessFactor" : 0.66}, "emissiveFactor" : [0, 0, 0], "alphaMode" : "OPAQUE", "doubleSided" : false}, {"pbrMetallicRoughness" : {"baseColorFactor" : [0.6862745, 0.5607843, 0.6235294, 1], "metallicFactor" : 0, "roughnessFactor" : 0.66}, "emissiveFactor" : [0, 0, 0], "alphaMode" : "OPAQUE", "doubleSided" : false}, {"pbrMetallicRoughness" : {"baseColorFactor" : [0.6862745, 0.5607843, 0.6235294, 1], "metallicFactor" : 0, "roughnessFactor" : 0.66}, "emissiveFactor" : [0, 0, 0], "alphaMode" : "OPAQUE", "doubleSided" : false}, {"pbrMetallicRoughness" : {"baseColorFactor" : [0.6862745, 0.5607843, 0.6235294, 1], "metallicFactor" : 0, "roughnessFactor" : 0.66}, "emissiveFactor" : [0, 0, 0], "alphaMode" : "OPAQUE", "doubleSided" : false}, {"pbrMetallicRoughness" : {"baseColorFactor" : [0.6862745, 0.5607843, 0.6235294, 1], "metallicFactor" : 0, "roughnessFactor" : 0.66}, "emissiveFactor" : [0, 0, 0], "alphaMode" : "OPAQUE", "doubleSided" : false}, {"pbrMetallicRoughness" : {"baseColorFactor" : [0.6862745, 0.5607843, 0.6235294, 1], "metallicFactor" : 0, "roughnessFactor" : 0.66}, "emissiveFactor" : [0, 0, 0], "alphaMode" : "OPAQUE", "doubleSided" : false}, {"pbrMetallicRoughness" : {"baseColorFactor" : [0.6862745, 0.5607843, 0.6235294, 1], "metallicFactor" : 0, "roughnessFactor" : 0.66}, "emissiveFactor" : [0, 0, 0], "alphaMode" : "OPAQUE", "doubleSided" : false}, {"pbrMetallicRoughness" : {"baseColorFactor" : [0.6862745, 0.5607843, 0.6235294, 1], "metallicFactor" : 0, "roughnessFactor" : 0.66}, "emissiveFactor" : [0, 0, 0], "alphaMode" : "OPAQUE", "doubleSided" : false}, {"pbrMetallicRoughness" : {"baseColorFactor" : [0.6862745, 0.5607843, 0.6235294, 1], "metallicFactor" : 0, "roughnessFactor" : 0.66}, "emissiveFactor" : [0, 0, 0], "alphaMode" : "OPAQUE", "doubleSided" : false}], "meshes" : [{"primitives" : [{"attributes" : {"POSITION" : 1, "NORMAL" : 2}, "indices" : 0, "material" : 0, "mode" : 4}]}, {"primitives" : [{"attributes" : {"POSITION" : 4, "NORMAL" : 5}, "indices" : 3, "material" : 1, "mode" : 4}, {"attributes" : {"POSITION" : 7, "NORMAL" : 8}, "indices" : 6, "material" : 1, "mode" : 4}]}, {"primitives" : [{"attributes" : {"POSITION" : 10, "NORMAL" : 11}, "indices" : 9, "material" : 2, "mode" : 4}]}, {"primitives" : [{"attributes" : {"POSITION" : 13, "NORMAL" : 14}, "indices" : 12, "material" : 3, "mode" : 4}]}, {"primitives" : [{"attributes" : {"POSITION" : 16, "NORMAL" : 17}, "indices" : 15, "material" : 4, "mode" : 4}]}, {"primitives" : [{"attributes" : {"POSITION" : 19, "NORMAL" : 20}, "indices" : 18, "material" : 5, "mode" : 4}]}, {"primitives" : [{"attributes" : {"POSITION" : 22, "NORMAL" : 23}, "indices" : 21, "material" : 6, "mode" : 4}]}, {"primitives" : [{"attributes" : {"POSITION" : 25, "NORMAL" : 26}, "indices" : 24, "material" : 7, "mode" : 4}]}, {"primitives" : [{"attributes" : {"POSITION" : 28, "NORMAL" : 29}, "indices" : 27, "material" : 8, "mode" : 4}]}, {"primitives" : [{"attributes" : {"POSITION" : 31, "NORMAL" : 32}, "indices" : 30, "material" : 9, "mode" : 4}]}], "nodes" : [{"mesh" : 0, "name" : "Solid3"}, {"mesh" : 1, "name" : "Solid4"}, {"mesh" : 2, "name" : "Solid5"}, {"mesh" : 3, "name" : "Solid5"}, {"mesh" : 4, "name" : "Solid6"}, {"mesh" : 5, "name" : "Solid7"}, {"mesh" : 6, "name" : "Solid7"}, {"mesh" : 7, "name" : "Solid8"}, {"mesh" : 8, "name" : "Solid8"}, {"mesh" : 9, "name" : "Solid9"}, {"children" : [0, 1, 2, 3, 4, 5, 6, 7, 8, 9], "matrix" : [1, 0, 0, 0, 0, 2.220446049250313E-16, -1, 0, 0, 1, 2.220446049250313E-16, 0, 0, 0, 0, 1], "name" : "Node #0"}], "scene" : 0, "scenes" : [{"nodes" : [10]}]}