{"accessors" : [{"bufferView" : 0, "byteOffset" : 0, "componentType" : 5123, "count" : 12, "type" : "SCALAR", "max" : [7], "min" : [0]}, {"bufferView" : 1, "byteOffset" : 0, "componentType" : 5126, "count" : 8, "type" : "VEC3", "max" : [3.678450107574463, 1.761258840560913, 1.5488210916519165], "min" : [0, 0, 0.746621310710907], "name" : "POSITION"}, {"bufferView" : 1, "byteOffset" : 12, "componentType" : 5126, "count" : 8, "type" : "VEC3", "max" : [0, 0, 1.0000044107437134], "min" : [-0.21780607104301453, -5.359950043970083E-17, 0.9759965538978577], "name" : "NORMAL"}, {"bufferView" : 0, "byteOffset" : 24, "componentType" : 5123, "count" : 6, "type" : "SCALAR", "max" : [3], "min" : [0]}, {"bufferView" : 2, "byteOffset" : 0, "componentType" : 5126, "count" : 4, "type" : "VEC3", "max" : [2.2211248874664307, 1.761258840560913, 1.5488210916519165], "min" : [1.3034268617630005, 0, 1.037497639656067], "name" : "POSITION"}, {"bufferView" : 2, "byteOffset" : 12, "componentType" : 5126, "count" : 4, "type" : "VEC3", "max" : [-0.48672935366630554, -4.144317474828273E-17, 0.8735579252243042], "min" : [-0.48672935366630554, -4.144317474828273E-17, 0.8735579252243042], "name" : "NORMAL"}, {"bufferView" : 0, "byteOffset" : 36, "componentType" : 5123, "count" : 372, "type" : "SCALAR", "max" : [187], "min" : [0]}, {"bufferView" : 3, "byteOffset" : 0, "componentType" : 5126, "count" : 188, "type" : "VEC3", "max" : [4.650000095367432, 1.761258840560913, 1.5488210916519165], "min" : [0, 0, -4.51194631754889E-17], "name" : "POSITION"}, {"bufferView" : 3, "byteOffset" : 12, "componentType" : 5126, "count" : 188, "type" : "VEC3", "max" : [1.0000044107437134, 1.0000044107437134, 0.7711151838302612], "min" : [-1.0000044107437134, -1.0000044107437134, -1.0000044107437134], "name" : "NORMAL"}], "asset" : {"generator" : "Aspose.3D 25.3.0", "version" : "2.0"}, "buffers" : [{"uri" : "data:application/octet-stream;base64,", "byteLength" : 5596}], "bufferViews" : [{"buffer" : 0, "byteOffset" : 0, "byteLength" : 780, "target" : 34963}, {"buffer" : 0, "byteOffset" : 784, "byteLength" : 192, "byteStride" : 24, "target" : 34962}, {"buffer" : 0, "byteOffset" : 980, "byteLength" : 96, "byteStride" : 24, "target" : 34962}, {"buffer" : 0, "byteOffset" : 1080, "byteLength" : 4512, "byteStride" : 24, "target" : 34962}], "materials" : [{"pbrMetallicRoughness" : {"baseColorFactor" : [0.6862745, 0.5686275, 0.5607843, 1], "metallicFactor" : 0, "roughnessFactor" : 0.66}, "emissiveFactor" : [0, 0, 0], "alphaMode" : "OPAQUE", "doubleSided" : false}], "meshes" : [{"primitives" : [{"attributes" : {"POSITION" : 1, "NORMAL" : 2}, "indices" : 0, "material" : 0, "mode" : 4}, {"attributes" : {"POSITION" : 4, "NORMAL" : 5}, "indices" : 3, "material" : 0, "mode" : 4}, {"attributes" : {"POSITION" : 7, "NORMAL" : 8}, "indices" : 6, "material" : 0, "mode" : 4}]}], "nodes" : [{"mesh" : 0, "name" : "Group_1118"}, {"children" : [0], "matrix" : [1, 0, 0, 0, 0, 2.220446049250313E-16, -1, 0, 0, 1, 2.220446049250313E-16, 0, 0, 0, 0, 1], "name" : "Node #0"}], "scene" : 0, "scenes" : [{"nodes" : [1]}]}